<?xml version="1.0" encoding="UTF-8"?>
<svg width="1440px" height="1024px" viewBox="0 0 1440 1024" version="1.1" xmlns="http://www.w3.org/2000/svg" xmlns:xlink="http://www.w3.org/1999/xlink">
    <!-- Generator: Sketch 57.1 (83088) - https://sketch.com -->
    <title>Group</title>
    <desc>Created with Sketch.</desc>
    <defs>
        <filter x="-8.5%" y="-21.7%" width="117.0%" height="143.4%" filterUnits="objectBoundingBox" id="filter-1">
            <feGaussianBlur stdDeviation="43" in="SourceGraphic"></feGaussianBlur>
        </filter>
        <filter x="-14.9%" y="-11.9%" width="129.8%" height="123.7%" filterUnits="objectBoundingBox" id="filter-2">
            <feGaussianBlur stdDeviation="43" in="SourceGraphic"></feGaussianBlur>
        </filter>
        <filter x="-9.6%" y="-14.7%" width="119.2%" height="129.3%" filterUnits="objectBoundingBox" id="filter-3">
            <feGaussianBlur stdDeviation="43" in="SourceGraphic"></feGaussianBlur>
        </filter>
    </defs>
    <g id="pixel" stroke="none" stroke-width="1" fill="none" fill-rule="evenodd">
        <g id="assets">
            <g id="Group" transform="translate(-77.000000, -132.000000)">
                <path d="M38,129.36025 C165.668956,439.147136 357.552301,594.040579 613.650035,594.040579 C997.796636,594.040579 853.057168,389.330132 1069.05466,446.166608 C1213.05299,484.057592 1370.78715,505.695961 1542.25714,511.081714 C1587.07447,209.604453 1527.65388,42.8338905 1363.99537,10.7700257 C1200.33687,-21.2938391 758.338409,18.2362356 38,129.36025 Z" id="Path-3" fill-opacity="0.644476617" fill="#4BBAD8" filter="url(#filter-1)"></path>
                <path d="M88.0494404,121 C-2.67088457,387.471637 -23.2870386,596.402878 26.2009783,747.793724 C100.433004,974.879993 -119.940519,1218.96056 348.200386,1208.57988 C816.341291,1198.19919 1032.41431,698.59996 721.711391,610.083286 C514.576109,551.072169 303.355459,388.044407 88.0494404,121 Z" id="Path-4" fill-opacity="0.682774257" fill="#B2D1A4" filter="url(#filter-2)"></path>
                <path d="M657.834868,572.424136 C1090.68907,303.349116 1397.96797,286.339746 1579.67158,521.396025 C1852.22698,873.980443 2145.22279,1215.80653 1553.30677,1224.22815 C961.390745,1232.64976 464.831602,1280.81443 566.216735,1117.39068 C633.806823,1008.44151 664.346201,826.785996 657.834868,572.424136 Z" id="Path-5" fill-opacity="0.684577142" fill="#7CC08F" filter="url(#filter-3)"></path>
            </g>
        </g>
    </g>
</svg>